:SAMPLES-PER-SECOND 30
:FULLY-SPECIFIED
:DEGREES
78
root  2.74424 38.7769 -33.9802 33.8951 -85.2591 -39.4545
RightUpLeg  -21.4618 1.07291 -9.15325
RightLeg  49.2522 -4.2479 -5.6756
RightFoot  2.23981 -0.425269 3.69742
RightToes  -1.74624e-010 0 -3.6325e-017
Spine  12.0755 -1.73359 -0.34155
Spine1  5.22713 -2.23477 1.24227
HEad  -18.4319 4.26171 -5.16767
LeftShoulder1  7.19209 -10.3465 -45.2445
LeftArm  -2.21533 24.1034 -30.8914
LeftForeArm  -175.485 -62.4955 -162.446
LeftHand  -0.244104 0.0205437 5.32207
RightShoulder  5.48867 8.74684 38.7229
RightArm  13.1306 -33.977 28.1628
RightForeArm  136.195 73.1792 142.694
RightHand  0.100428 -8.07616 -5.92925
LeftUpLeg  -3.05447 6.97675 -11.7521
LeftLeg  24.0063 7.34561 3.91834
LeftFoot  -14.7442 0.571424 16.1074
LeftToes  1.28235e-010 -1.10989e-010 2.53219e-011
79
root  0.832927 39.4841 -33.6727 34.9634 -81.797 -39.3589
RightUpLeg  -20.6143 -0.923627 -6.76088
RightLeg  33.5266 -2.17812 -1.78712
RightFoot  2.19245 -0.721515 6.22429
RightToes  -1.74624e-010 0 -3.6325e-017
Spine  10.539 -2.696 0.580628
Spine1  4.81194 -3.61863 3.12782
HEad  -17.8432 5.57243 -6.93539
LeftShoulder1  7.02807 -10.3023 -44.3167
LeftArm  0.652282 23.1278 -32.9131
LeftForeArm  -176.071 -60.4006 -163.81
LeftHand  -0.244104 0.0205437 5.32207
RightShoulder  4.88858 8.29749 35.4698
RightArm  15.9642 -39.6677 25.2788
RightForeArm  144.241 70.1855 149.636
RightHand  0.0447237 -8.27981 -3.49085
LeftUpLeg  0.780367 6.68558 -8.83091
LeftLeg  20.3482 4.95589 2.27541
LeftFoot  -12.588 0.23601 14.3566
LeftToes  1.28235e-010 -1.10989e-010 2.53219e-011
80
root  -1.10207 40.0094 -33.3642 30.9971 -79.3568 -34.3838
RightUpLeg  -19.1585 -2.50738 -5.68241
RightLeg  18.8216 1.37358 0.261844
RightFoot  1.77021 -0.923034 8.1115
RightToes  -1.74624e-010 0 -3.6325e-017
Spine  8.68379 -3.06582 1.68136
Spine1  4.77244 -3.87942 2.98517
HEad  -16.1101 6.31318 -7.89729
LeftShoulder1  6.96479 -10.4209 -43.5035
LeftArm  3.91227 21.2744 -33.0183
LeftForeArm  -175.228 -58.8008 -164.852
LeftHand  -0.244104 0.0205437 5.32207
RightShoulder  4.71652 8.54806 33.1989
RightArm  14.7113 -45.8558 24.9996
RightForeArm  150.13 68.7049 152.543
RightHand  0.00711509 -9.16348 -1.64695
LeftUpLeg  3.37822 7.79408 -6.73219
LeftLeg  18.9542 2.1031 0.745752
LeftFoot  -9.38771 -0.134472 11.4021
LeftToes  1.28235e-010 -1.10989e-010 2.53219e-011
81
root  -2.95819 40.2073 -33.0804 24.0589 -76.5566 -26.9575
RightUpLeg  -17.7439 -4.82568 -5.54279
RightLeg  9.32334 6.95874 1.32286
RightFoot  3.4327 -1.33677 10.406
RightToes  -1.74624e-010 0 -3.6325e-017
Spine  7.58931 -3.28979 2.71076
Spine1  5.02284 -3.86745 2.23554
HEad  -14.4814 6.8907 -8.4498
LeftShoulder1  6.901 -10.5332 -42.7174
LeftArm  6.28026 18.949 -32.6576
LeftForeArm  -174.704 -57.8163 -165.452
LeftHand  -0.244104 0.0205437 5.32207
RightShoulder  4.76759 9.04889 32.0361
RightArm  10.8532 -50.8302 27.0282
RightForeArm  150.179 68.1964 153.204
RightHand  0.0104032 -9.991 -1.55689
LeftUpLeg  3.8627 8.42162 -5.59919
LeftLeg  22.293 -0.22555 0.284288
LeftFoot  -6.13166 -0.301462 7.47327
LeftToes  1.28235e-010 -1.10989e-010 2.53219e-011
82
root  -4.70947 39.9644 -32.8505 18.3048 -72.8518 -21.5175
RightUpLeg  -16.6997 -5.98851 -5.95184
RightLeg  7.84215 12.0731 2.41076
RightFoot  5.44073 -1.92243 13.2841
RightToes  -1.74624e-010 0 -3.6325e-017
Spine  7.57468 -3.43692 3.89011
Spine1  5.59795 -3.81207 1.6905
HEad  -13.781 7.53606 -9.21614
LeftShoulder1  6.94258 -10.7446 -42.3134
LeftArm  7.29195 16.7397 -32.3675
LeftForeArm  -176.784 -57.7738 -165.303
LeftHand  -0.244104 0.0205437 5.32207
RightShoulder  4.68452 9.09054 31.2443
RightArm  6.19087 -53.0171 30.931
RightForeArm  147.643 68.4308 152.576
RightHand  0.056708 -10.4215 -2.52205
LeftUpLeg  2.14262 5.80352 -4.89003
LeftLeg  31.0892 0.894273 0.970392
LeftFoot  -4.55945 -0.130879 2.55119
LeftToes  1.28235e-010 -1.10989e-010 2.53219e-011
83
root  -6.40519 39.2669 -32.6729 15.5043 -68.9802 -19.7462
RightUpLeg  -16.1273 -5.46534 -5.67427
RightLeg  13.4276 13.9055 3.63577
RightFoot  3.58997 -1.86268 14.2848
RightToes  -1.74624e-010 0 -3.6325e-017
Spine  8.37621 -3.24623 5.64145
Spine1  6.05487 -3.30059 1.29114
HEad  -13.4702 8.41696 -10.2832
LeftShoulder1  7.07989 -11.0142 -42.3529
LeftArm  7.09532 15.3235 -32.3997
LeftForeArm  -178.834 -58.2093 -164.892
LeftHand  -0.244104 0.0205437 5.32207
RightShoulder  4.49587 8.75077 30.7402
RightArm  2.67061 -52.6904 34.2892
RightForeArm  147.849 68.8205 152.082
RightHand  0.062454 -10.4308 -2.64099
LeftUpLeg  -0.96281 3.79526 -3.45087
LeftLeg  43.4868 2.15161 2.59837
LeftFoot  -5.20938 0.11554 -1.62741
LeftToes  1.28235e-010 -1.10989e-010 2.53219e-011
84
root  -8.04433 38.3534 -32.5 14.3624 -65.2003 -20.1598
RightUpLeg  -15.7977 -2.39501 -4.74835
RightLeg  22.5767 9.48992 3.99887
RightFoot  -3.09852 -0.932684 12.4274
RightToes  -1.74624e-010 0 -3.6325e-017
Spine  10.104 -2.99272 7.99064
Spine1  5.66018 -2.50327 0.870943
HEad  -13.3981 9.95431 -11.3566
LeftShoulder1  7.14376 -10.9725 -42.895
LeftArm  5.76527 14.8951 -32.931
LeftForeArm  -178.085 -59.1767 -164.391
LeftHand  -0.244104 0.0205437 5.32207
RightShoulder  4.61409 8.63134 32.0741
RightArm  2.45209 -49.6667 32.9848
RightForeArm  148.365 69.2132 151.608
RightHand  0.0309104 -10.6409 -1.89753
LeftUpLeg  -4.64812 2.84366 -1.1119
LeftLeg  56.3528 2.55243 4.64991
LeftFoot  -6.90489 0.158469 -2.94039
LeftToes  1.28235e-010 -1.10989e-010 2.53219e-011
85
root  -9.5644 37.5232 -32.2672 13.9163 -60.8645 -21.6483
RightUpLeg  -15.189 -1.2178 -2.65808
RightLeg  31.7172 4.29223 2.63731
RightFoot  -10.8077 -0.114105 10.4696
RightToes  -1.74624e-010 0 -3.6325e-017
Spine  12.542 -3.31588 10.9449
Spine1  4.94379 -2.14505 0.648842
HEad  -14.348 12.2917 -12.4761
LeftShoulder1  7.27765 -10.7501 -44.4555
LeftArm  3.32298 15.3253 -33.4148
LeftForeArm  -177.143 -61.8056 -162.736
LeftHand  -0.244104 0.0205437 5.32207
RightShoulder  5.20956 8.92364 35.9233
RightArm  4.83148 -42.2605 27.2414
RightForeArm  144.002 70.733 148.603
RightHand  0.0393695 -11.6335 -1.81846
LeftUpLeg  -8.79815 1.70045 1.73986
LeftLeg  67.1907 2.28918 6.71997
LeftFoot  -8.55098 0.0962542 -1.80027
LeftToes  1.28235e-010 -1.10989e-010 2.53219e-011
86
root  -11.0053 36.9725 -31.9208 12.8735 -56.2349 -22.2448
RightUpLeg  -13.4853 -3.14444 -0.812903
RightLeg  37.8812 1.96878 1.39952
RightFoot  -16.2444 0.330655 10.1827
RightToes  -1.74624e-010 0 -3.6325e-017
Spine  14.1593 -3.76958 13.3237
Spine1  5.21963 -2.06856 0.53816
HEad  -16.075 14.4406 -13.6466
LeftShoulder1  7.79482 -10.9878 -46.9101
LeftArm  0.524093 17.0286 -32.9986
LeftForeArm  -179.657 -65.7255 -159.384
LeftHand  -0.244104 0.0205437 5.32207
RightShoulder  5.90286 9.32492 39.8899
RightArm  6.12463 -31.2053 23.0611
RightForeArm  137.42 73.4164 142.334
RightHand  0.0731082 -13.0024 -2.13476
LeftUpLeg  -13.4095 0.587507 3.79823
LeftLeg  74.0246 1.82053 8.30445
LeftFoot  -10.0761 0.0638602 -0.320531
LeftToes  1.28235e-010 -1.10989e-010 2.53219e-011
87
root  -12.4525 36.8404 -31.3921 11.0433 -52.3896 -20.634
RightUpLeg  -10.3761 -5.97984 -0.654357
RightLeg  39.1521 1.47497 1.00345
RightFoot  -19.4047 0.615274 10.5857
RightToes  -1.74624e-010 0 -3.6325e-017
Spine  13.6177 -3.15588 14.2477
Spine1  6.51884 -1.16877 -0.271167
HEad  -16.6978 14.8457 -13.8162
LeftShoulder1  8.43024 -11.6024 -48.7191
LeftArm  -0.648365 20.661 -31.465
LeftForeArm  175.964 -68.0266 -156.621
LeftHand  -0.244104 0.0205437 5.32207
RightShoulder  6.16313 9.51692 41.1316
RightArm  4.65757 -21.6318 24.3872
RightForeArm  138.163 74.5398 139.691
RightHand  0.0177954 -13.6683 -1.25569
LeftUpLeg  -18.2066 1.10169 3.71264
LeftLeg  75.7076 1.76187 9.22464
LeftFoot  -11.7433 0.071183 0.376087
LeftToes  1.28235e-010 -1.10989e-010 2.53219e-011
88
root  -13.963 37.1746 -30.6289 9.08218 -49.4795 -17.2227
RightUpLeg  -6.26685 -7.90415 -1.95108
RightLeg  36.2068 0.697216 0.292897
RightFoot  -20.812 0.759232 10.8123
RightToes  -1.74624e-010 0 -3.6325e-017
Spine  11.5632 -1.24807 14.1029
Spine1  7.19495 1.04176 -2.31062
HEad  -14.9593 12.9885 -11.7963
LeftShoulder1  8.51568 -11.8175 -48.511
LeftArm  1.454 25.6208 -29.0185
LeftForeArm  174.3 -66.7502 -157.706
LeftHand  -0.244104 0.0205437 5.32207
RightShoulder  5.93579 9.3492 40.0378
RightArm  1.74074 -17.3533 29.539
RightForeArm  148.133 71.8382 147.162
RightHand  -0.0706052 -13.5824 -0.0450213
LeftUpLeg  -22.3695 3.7954 1.42968
LeftLeg  72.268 2.54895 9.88637
LeftFoot  -13.3217 0.0827345 0.210996
LeftToes  1.28235e-010 -1.10989e-010 2.53219e-011
89
root  -15.5085 37.9104 -29.6172 7.52295 -46.4685 -13.3601
RightUpLeg  -1.54 -9.75677 -3.94866
RightLeg  30.7548 -0.2217 -0.40182
RightFoot  -19.3801 0.71568 12.0958
RightToes  -1.74624e-010 0 -3.6325e-017
Spine  9.25848 1.05793 13.3441
Spine1  6.34838 3.57721 -4.88985
HEad  -11.5852 9.82115 -8.36168
LeftShoulder1  7.99213 -11.3856 -46.8188
LeftArm  5.64722 30.3644 -26.07
LeftForeArm  175.002 -63.3752 -160.853
LeftHand  -0.244104 0.0205437 5.32207
RightShoulder  5.62454 8.95865 39.0453
RightArm  0.0584229 -16.733 34.2873
RightForeArm  154.458 66.5734 155.656
RightHand  -0.0247101 -13.166 -0.73245
LeftUpLeg  -24.9976 7.65003 -2.1108
LeftLeg  64.272 4.40241 10.4938
LeftFoot  -14.2937 0.0692946 -0.643555
LeftToes  1.28235e-010 -1.10989e-010 2.53219e-011
90
root  -16.9789 38.8447 -28.3912 6.70472 -42.409 -10.5634
RightUpLeg  3.97761 -13.5227 -6.2376
RightLeg  24.024 0.553278 0.0320705
RightFoot  -14.0019 0.246621 15.5865
RightToes  -1.74624e-010 0 -3.6325e-017
Spine  7.07155 2.73376 12.3051
Spine1  5.22012 5.15488 -6.73688
HEad  -7.92839 6.66861 -5.5796
LeftShoulder1  7.49322 -10.9092 -45.3104
LeftArm  8.84464 34.5019 -23.3494
LeftForeArm  176.001 -60.317 -163.167
LeftHand  -0.244104 0.0205437 5.32207
RightShoulder  5.4404 8.58384 38.9241
RightArm  0.92503 -16.2395 36.2203
RightForeArm  156.282 62.1296 160.02
RightHand  0.0769619 -11.5131 -2.53016
LeftUpLeg  -25.4619 11.4416 -5.77198
LeftLeg  52.6529 6.90304 10.0905
LeftFoot  -14.7636 0.0533313 -1.19239
LeftToes  1.28235e-010 -1.10989e-010 2.53219e-011
